  <svg version="1.0" xmlns="http://www.w3.org/2000/svg"  width="600.000000pt" height="600.000000pt" viewBox="0 0 600.000000 600.000000"  preserveAspectRatio="xMidYMid meet"> <g transform="translate(0.000000,600.000000) scale(0.100000,-0.100000)" fill="currentColor" stroke="none"> <path d="M1180 3909 c-25 -5 -72 -22 -106 -39 -234 -115 -339 -398 -232 -628 33 -71 112 -142 342 -307 349 -251 389 -282 407 -317 37 -69 12 -164 -53 -203 -31 -19 -54 -20 -455 -23 l-423 -3 106 158 c59 87 108 159 109 161 1 1 20 -24 41 -58 22 -33 41 -60 44 -60 3 0 30 39 62 86 l56 87 -101 137 c-56 76 -105 138 -109 137 -3 -1 -44 -56 -90 -122 -110 -157 -412 -592 -469 -675 l-45 -65 646 3 c711 3 703 2 835 67 45 22 90 55 127 92 l56 58 -10 60 c-24 151 -63 233 -146 302 -26 21 -189 142 -362 268 -173 126 -340 255 -370 286 -86 88 -131 197 -142 341 -4 61 9 53 17 -9 8 -75 41 -146 94 -205 23 -26 189 -154 369 -285 355 -258 419 -312 471 -398 36 -59 71 -168 71 -221 0 -23 5 -33 19 -37 23 -6 37 21 21 37 -8 8 -10 7 -5 -5 3 -9 1 -16 -8 -16 -9 0 -13 16 -13 56 -1 32 -8 70 -18 89 -9 17 -14 32 -10 32 4 0 0 8 -7 17 -8 9 -9 14 -4 11 6 -4 12 3 12 15 2 17 0 19 -7 7 -10 -17 -30 -4 -34 23 -1 9 -13 25 -26 37 -12 11 -20 20 -16 20 4 0 2 9 -4 20 -6 12 -7 20 -1 20 5 0 11 -6 14 -12 3 -7 5 -4 4 7 -1 16 -7 21 -31 20 -34 -1 -70 30 -59 49 18 28 11 36 -18 21 -27 -14 -33 -13 -30 7 0 4 -6 5 -15 1 -12 -4 -14 0 -10 21 3 15 1 24 -5 21 -5 -4 -7 -11 -4 -16 12 -19 -21 -8 -46 15 -14 13 -35 29 -47 35 -13 7 -20 16 -17 22 4 5 3 8 -2 7 -13 -3 -66 28 -87 51 -19 21 -19 22 10 59 16 20 37 49 47 65 10 15 26 27 37 27 10 0 22 5 25 10 4 6 11 8 16 5 5 -3 6 1 3 9 -4 9 1 18 10 22 9 3 13 10 10 15 -3 5 -1 9 5 9 5 0 13 -9 16 -20 8 -25 18 -25 36 -2 13 15 12 16 -3 4 -14 -11 -18 -10 -27 7 -6 11 -11 22 -11 24 0 13 142 146 153 144 7 -1 11 4 9 12 -2 9 3 11 13 7 9 -3 14 -2 11 3 -7 11 22 23 36 14 6 -3 8 -1 5 4 -6 9 12 18 48 24 9 1 42 13 100 35 11 4 34 8 50 9 80 6 105 10 105 17 0 4 11 3 25 -2 15 -6 27 -6 30 0 3 5 12 7 20 4 8 -3 29 1 46 10 38 19 90 21 108 4 9 -9 12 -9 7 -1 -3 6 -3 13 1 16 5 2 2 2 -5 0 -7 -1 -10 2 -6 8 3 6 17 8 31 4 14 -3 22 -2 19 4 -3 5 16 15 44 22 27 7 50 17 50 22 0 5 7 4 15 -3 12 -10 16 -9 22 6 10 23 30 29 49 13 8 -7 17 -9 20 -6 9 9 -6 28 -17 22 -5 -4 -9 -1 -9 5 0 10 48 35 63 32 4 -1 10 5 13 13 3 8 11 12 17 8 5 -3 7 -1 4 4 -7 12 25 53 41 53 6 0 12 3 15 8 2 4 2 1 0 -6 -1 -8 -3 -20 -3 -28 0 -9 -5 -12 -11 -8 -8 4 -9 -1 -4 -16 4 -13 3 -20 -2 -17 -5 3 -9 -4 -8 -16 2 -26 -15 -68 -25 -62 -4 3 -8 -1 -7 -8 1 -31 -4 -48 -12 -43 -5 3 -8 -2 -7 -12 0 -11 -6 -16 -17 -16 -13 2 -16 -3 -11 -18 4 -13 2 -18 -4 -14 -5 3 -16 -2 -23 -11 -12 -14 -12 -16 0 -8 9 5 12 4 7 -3 -4 -6 -13 -9 -20 -6 -8 3 -17 0 -22 -7 -5 -8 -3 -10 7 -4 12 8 12 6 0 -8 -7 -9 -17 -15 -21 -12 -4 3 -13 -2 -20 -10 -7 -8 -16 -13 -20 -10 -5 3 -12 0 -16 -6 -5 -8 -3 -9 7 -4 11 6 11 5 2 -5 -13 -14 -37 -4 -27 12 4 6 2 8 -4 5 -5 -4 -8 -16 -5 -27 3 -12 0 -20 -6 -20 -7 0 -9 5 -5 12 5 7 -4 3 -19 -9 -15 -12 -38 -20 -52 -19 -13 2 -23 -2 -22 -8 1 -6 -8 -11 -20 -10 -13 0 -23 -3 -23 -8 0 -5 -12 -8 -27 -7 -16 1 -53 -2 -83 -5 -101 -14 -120 -14 -113 -2 4 6 -1 5 -10 -3 -9 -7 -26 -11 -37 -8 -11 3 -18 1 -14 -4 5 -9 -16 -14 -50 -10 -11 1 -17 -2 -13 -6 9 -9 -64 -34 -76 -26 -6 4 -7 1 -2 -7 6 -10 4 -12 -9 -7 -10 4 -15 3 -11 -3 3 -6 -1 -10 -9 -10 -9 0 -16 -5 -16 -11 0 -6 -7 -8 -16 -5 -8 3 -12 2 -9 -4 3 -6 -1 -13 -9 -16 -9 -3 -13 -10 -10 -15 5 -8 -9 -13 -28 -10 -5 0 -7 -2 -7 -7 4 -21 -2 -32 -13 -26 -7 4 -10 4 -6 -1 9 -10 -31 -67 -42 -60 -5 3 -10 0 -12 -7 -3 -7 -7 -5 -11 6 -4 10 -3 15 3 11 6 -3 10 -1 10 5 0 6 -11 8 -25 6 -34 -6 -40 9 -13 33 12 12 19 24 15 27 -3 3 -17 -6 -30 -21 l-23 -28 -33 32 c-18 17 -36 29 -42 26 -14 -9 -14 -9 54 -56 34 -24 71 -52 82 -62 20 -18 21 -18 45 15 121 159 209 204 452 232 163 19 233 37 312 79 143 76 227 207 261 411 l7 39 -74 -68 c-40 -37 -72 -72 -70 -77 1 -5 -2 -7 -8 -3 -5 3 -24 -3 -40 -15 -88 -63 -214 -100 -440 -130 -80 -10 -170 -26 -200 -35 -83 -25 -186 -83 -246 -138 -41 -37 -131 -142 -160 -185 -1 -2 -51 32 -111 76 -59 44 -127 95 -151 112 -99 72 -110 175 -26 231 24 16 47 19 136 19 l108 0 -49 -67 c-26 -38 -57 -81 -68 -97 l-20 -30 56 -41 c31 -23 68 -49 82 -59 l27 -17 126 185 c86 126 124 191 120 203 -5 14 -4 15 4 4 7 -10 19 0 49 45 22 33 43 65 47 72 6 9 -63 12 -331 11 -186 -1 -358 -5 -383 -10z m552 -10 c93 -2 135 -6 131 -13 -18 -33 -46 -53 -69 -50 -14 1 -23 -1 -19 -4 3 -4 13 -7 21 -7 7 0 14 -4 14 -10 0 -5 -4 -10 -9 -10 -6 0 -16 -6 -22 -12 -7 -7 -9 -13 -4 -13 4 0 0 -10 -11 -22 -13 -14 -14 -19 -4 -14 8 4 4 -1 -10 -12 -18 -15 -27 -17 -32 -9 -5 8 -8 8 -8 1 0 -19 13 -24 29 -13 9 7 0 -3 -19 -22 -19 -18 -34 -37 -32 -43 5 -14 -41 -57 -56 -51 -7 3 -10 0 -7 -6 4 -6 14 -8 22 -4 14 5 14 3 2 -12 -8 -10 -20 -22 -26 -26 -7 -4 -13 -15 -13 -24 0 -11 -6 -14 -21 -10 -17 5 -18 3 -8 -9 10 -12 8 -19 -9 -37 -11 -12 -21 -26 -21 -30 1 -17 -11 -19 -17 -3 -3 9 -11 13 -18 9 -6 -4 -5 1 3 10 8 10 11 20 7 24 -3 3 -6 2 -6 -4 0 -6 -6 -13 -14 -16 -19 -7 -68 31 -60 45 4 7 2 8 -4 4 -7 -4 -12 -2 -12 4 0 6 -4 8 -10 5 -17 -10 -11 7 8 22 9 8 11 11 3 7 -8 -4 0 14 18 39 35 52 42 57 36 27 -2 -11 0 -18 5 -15 5 3 7 16 4 29 -3 16 5 35 21 55 l26 30 -23 12 c-12 7 -53 11 -91 11 -49 -1 -66 2 -61 10 4 6 -3 4 -17 -5 -13 -9 -34 -17 -48 -17 -14 0 -37 -14 -59 -37 -20 -21 -33 -33 -29 -26 4 6 3 14 -1 17 -5 3 -9 -5 -9 -17 0 -12 -1 -38 -2 -57 l-2 -35 -14 25 c-8 14 -15 21 -15 15 -1 -5 -10 8 -20 30 -36 78 -17 186 40 225 13 8 28 20 34 26 7 6 77 11 181 13 93 1 172 4 174 7 2 2 7 2 10 -1 4 -2 68 -5 143 -6z m-552 -31 c-38 -40 -60 -95 -59 -145 0 -54 31 -139 49 -135 6 1 9 -2 6 -7 -3 -5 1 -14 10 -21 8 -7 13 -19 10 -26 -3 -8 0 -11 10 -7 8 3 14 -1 14 -11 0 -9 5 -16 11 -16 6 0 8 -7 5 -16 -3 -8 -2 -12 4 -9 15 9 53 -31 44 -47 -6 -11 -5 -11 8 0 12 10 19 8 40 -11 13 -12 47 -37 76 -56 29 -18 52 -37 52 -43 0 -5 -4 -7 -8 -4 -5 3 -9 -1 -9 -9 0 -11 4 -12 13 -4 14 11 42 1 62 -24 9 -11 8 -18 -7 -31 -11 -10 -25 -31 -31 -47 -7 -16 -16 -26 -20 -24 -5 3 -11 -4 -15 -15 -3 -11 -10 -20 -15 -20 -10 0 -120 80 -120 87 0 2 5 1 12 -3 7 -4 8 -3 4 4 -4 7 -13 12 -21 12 -8 0 -24 10 -36 23 -12 12 -18 15 -14 7 5 -8 -3 -5 -17 8 -13 12 -29 22 -36 22 -6 0 -17 8 -24 19 -7 10 -22 21 -33 25 -32 10 -82 60 -77 75 3 10 0 12 -11 8 -24 -9 -43 19 -26 41 12 15 12 16 -1 5 -9 -7 -21 -8 -29 -4 -9 6 -10 10 -2 15 6 4 8 12 5 18 -4 7 2 8 17 3 13 -4 21 -4 16 0 -6 7 -17 10 -60 14 -28 3 -69 184 -44 195 9 5 9 7 0 12 -6 3 9 24 37 50 30 28 54 43 61 38 8 -4 9 -3 5 4 -4 7 -1 12 8 12 9 0 16 5 16 11 0 5 4 8 8 5 5 -3 21 4 38 15 16 10 34 19 39 19 6 0 3 -5 -5 -10 -8 -5 -10 -10 -5 -10 6 1 19 7 29 15 30 23 39 18 16 -7z m1518 -68 c-7 -10 -14 -17 -17 -15 -4 4 18 35 25 35 2 0 -1 -9 -8 -20z m-1808 -139 c0 -5 -7 -12 -16 -15 -14 -5 -15 -4 -4 9 14 17 20 19 20 6z m-9 -48 c1 -10 2 -28 2 -40 1 -13 5 -23 11 -23 6 0 5 -5 -2 -12 -14 -14 -16 -32 -3 -24 5 3 14 -14 20 -38 6 -25 18 -51 26 -59 16 -16 39 -67 37 -79 -1 -5 1 -7 6 -5 4 1 27 -19 51 -45 25 -26 48 -45 53 -42 4 3 8 0 8 -6 0 -6 11 -16 25 -22 15 -7 24 -17 21 -25 -3 -7 -2 -12 2 -12 22 4 42 -2 37 -11 -3 -5 1 -10 10 -10 9 0 13 -4 10 -10 -4 -6 1 -7 11 -3 13 5 16 3 11 -10 -4 -11 -2 -14 9 -10 10 3 28 -8 49 -32 19 -20 39 -34 44 -31 12 8 53 -48 43 -59 -4 -5 -1 -5 6 -1 7 4 10 12 7 17 -3 5 1 6 9 3 8 -3 17 -12 20 -20 3 -8 12 -14 20 -14 8 0 21 -8 28 -19 7 -10 16 -19 21 -19 21 -3 67 -38 63 -49 -3 -7 1 -10 8 -7 7 3 20 -2 29 -10 9 -9 21 -16 27 -16 6 0 9 -4 6 -9 -5 -8 5 -15 29 -21 19 -4 35 -22 28 -33 -3 -5 -1 -7 5 -3 12 7 45 -22 37 -34 -3 -5 4 -7 15 -5 11 2 18 0 15 -6 -4 -5 0 -9 8 -9 22 0 71 -56 56 -65 -8 -6 -10 -4 -4 5 6 9 4 11 -4 5 -9 -5 -10 -10 -2 -18 7 -7 7 -15 1 -22 -7 -8 -5 -12 4 -12 8 0 13 8 11 19 -4 20 -3 21 19 12 9 -3 13 -10 10 -15 -3 -5 0 -9 6 -9 6 0 8 -4 5 -10 -3 -5 -1 -10 5 -10 7 0 9 -7 6 -16 -4 -10 -2 -13 6 -8 8 5 9 2 5 -11 -4 -9 -3 -23 1 -29 10 -12 19 -44 28 -102 5 -36 5 -38 -9 -19 -9 11 -13 24 -10 29 4 5 1 6 -6 2 -6 -4 -22 1 -35 12 -22 17 -23 19 -8 30 14 10 13 11 -5 2 -28 -13 -46 -13 -38 0 3 6 0 10 -8 10 -7 0 -24 12 -38 26 -13 14 -34 30 -47 35 -14 5 -20 14 -16 21 5 8 2 9 -10 5 -13 -5 -17 -3 -13 6 3 8 -3 13 -19 13 -13 0 -24 -1 -24 -2 0 -11 244 -182 252 -178 6 4 8 2 4 -4 -3 -6 -2 -13 4 -17 6 -4 8 -11 5 -16 -3 -5 0 -6 8 -3 26 10 30 -17 6 -42 -24 -25 -45 -33 -33 -11 4 6 3 8 -1 4 -5 -4 -10 -15 -11 -24 -2 -9 -10 -20 -18 -25 -8 -5 -22 -15 -30 -23 -22 -22 -42 -20 -25 3 13 15 12 16 -3 3 -10 -7 -15 -17 -13 -22 8 -12 -42 -42 -56 -33 -8 5 -9 3 -4 -6 6 -10 1 -12 -18 -8 -17 3 -24 1 -20 -5 4 -6 0 -8 -10 -4 -10 4 -17 1 -17 -5 0 -6 -3 -9 -6 -6 -3 4 -21 0 -39 -8 -55 -23 -64 -16 -15 12 64 36 80 53 106 109 44 92 27 185 -52 280 -21 26 -33 49 -28 56 4 8 3 9 -4 5 -7 -4 -12 -3 -12 1 0 5 -25 24 -55 42 -30 18 -55 35 -55 38 0 2 4 2 8 -1 4 -2 9 5 9 17 2 16 0 18 -7 7 -12 -19 -45 -3 -99 46 -23 20 -41 33 -41 28 0 -4 -15 7 -33 24 -18 18 -37 29 -42 25 -5 -5 -4 -1 3 8 10 13 8 19 -7 33 -14 13 -21 14 -27 5 -5 -8 -3 -10 6 -4 9 5 11 4 6 -4 -8 -13 -22 -5 -59 31 -18 18 -15 44 4 33 5 -3 6 2 2 11 -6 16 -7 16 -19 0 -15 -21 -38 -12 -92 35 -18 16 -40 29 -48 29 -8 0 -13 4 -10 9 5 7 -14 20 -34 23 -12 2 -35 45 -35 65 -1 12 -4 25 -7 28 -4 4 -5 -5 -4 -19 2 -14 -1 -26 -5 -26 -8 0 -13 15 -10 33 0 4 -4 6 -11 5 -15 -4 -60 61 -51 75 3 5 1 7 -5 3 -6 -3 -13 -2 -17 4 -3 5 -1 10 6 10 8 0 8 4 -1 15 -7 8 -9 22 -6 31 5 13 3 14 -7 6 -10 -8 -13 -6 -13 9 0 10 5 19 11 19 5 0 4 4 -4 9 -9 6 -14 26 -13 58 1 83 4 103 15 96 5 -3 7 -2 4 4 -10 16 13 84 25 77 7 -5 9 -1 5 9 -3 10 -2 17 3 17 6 0 11 -8 11 -17z m114 -113 c3 -5 1 -10 -4 -10 -6 0 -11 5 -11 10 0 6 2 10 4 10 3 0 8 -4 11 -10z m-120 -509 c-2 -12 2 -18 13 -17 18 1 26 -40 11 -50 -5 -3 -9 2 -9 11 0 9 -5 13 -11 10 -7 -5 -5 -13 6 -25 10 -11 12 -20 7 -24 -6 -3 -13 0 -15 6 -3 8 -6 6 -6 -4 -1 -22 12 -23 29 -3 7 8 9 15 5 15 -4 0 -2 6 4 13 6 8 7 18 3 22 -4 5 -1 5 6 1 7 -5 11 -14 8 -22 -3 -8 0 -13 7 -11 6 1 19 -13 28 -30 9 -18 20 -29 24 -25 5 4 5 -1 2 -10 -3 -10 -3 -17 1 -17 19 3 25 -2 12 -11 -13 -8 -13 -10 2 -10 9 0 25 -12 36 -27 19 -26 19 -26 -2 -47 -11 -11 -31 -20 -44 -20 -12 1 -20 -1 -17 -4 2 -3 -1 -12 -7 -21 -8 -10 -4 -8 10 3 19 16 25 17 35 6 8 -8 8 -11 1 -7 -11 7 -29 -19 -25 -36 1 -5 -3 -6 -9 -2 -5 3 -10 -1 -10 -9 0 -24 -16 -19 -35 10 -14 22 -15 28 -4 36 11 8 11 9 -2 5 -20 -6 -49 26 -50 56 -1 24 -4 18 -13 -26 -5 -19 -12 -27 -24 -25 -10 2 -17 -4 -18 -12 -1 -32 -16 -61 -29 -56 -9 3 -12 0 -9 -8 3 -7 -5 -21 -17 -32 -17 -15 -21 -15 -17 -3 4 9 1 16 -8 16 -9 0 -10 -5 -5 -15 11 -19 3 -52 -19 -77 -9 -11 -27 -37 -39 -57 -13 -21 -25 -38 -28 -38 -3 0 2 11 11 24 12 19 13 27 3 32 -6 4 -9 4 -5 -1 4 -4 3 -14 -3 -21 -15 -18 -21 -62 -9 -69 5 -3 10 -12 10 -18 0 -7 -4 -6 -10 3 -6 9 -10 10 -10 3 0 -22 36 -35 50 -18 15 18 34 20 24 3 -6 -10 -4 -10 7 -2 18 15 159 17 159 3 0 -6 7 -3 16 6 9 9 18 14 21 11 8 -7 -80 -126 -89 -120 -4 3 -5 -2 -2 -10 6 -15 -28 -56 -46 -56 -14 0 -12 17 3 23 7 4 6 6 -5 6 -9 1 -18 -3 -20 -8 -3 -9 -165 -14 -360 -12 -60 1 -68 3 -68 20 0 11 5 23 10 26 6 4 8 11 5 16 -4 5 -2 9 4 9 5 0 13 9 16 21 4 12 13 18 20 15 9 -3 12 0 9 8 -3 7 2 19 10 26 9 7 13 16 11 21 -3 5 3 14 15 21 11 7 20 19 20 26 0 7 5 10 11 7 7 -5 4 -16 -7 -33 -15 -25 -15 -26 0 -11 10 9 19 31 21 49 5 37 32 73 49 63 7 -4 7 -1 -1 7 -9 10 -6 20 14 46 14 19 29 31 34 28 5 -3 9 -2 8 3 -4 24 3 43 16 43 8 0 15 -4 15 -10 0 -5 -5 -10 -12 -10 -18 0 -3 -10 22 -15 17 -3 20 -1 11 9 -7 8 -10 20 -9 27 2 8 -2 13 -9 12 -7 -2 -10 4 -7 12 4 8 10 15 16 15 5 0 7 4 4 9 -3 5 1 15 10 22 9 7 20 24 25 37 7 17 14 22 26 17 10 -3 14 -3 11 1 -11 11 41 98 105 174 6 8 12 17 12 20 0 6 56 80 61 80 1 0 1 -8 -1 -19z m870 -61 c-3 -5 -14 -10 -23 -10 -15 0 -15 2 -2 10 20 13 33 13 25 0z m-77 -411 c3 -11 2 -11 -7 1 -17 24 -13 2 5 -25 37 -57 7 -177 -58 -229 -46 -37 -52 -41 -68 -44 -8 -2 -16 -7 -18 -11 -1 -3 -152 -6 -334 -4 -229 1 -336 -1 -345 -9 -8 -6 -16 -8 -19 -5 -14 13 103 179 129 183 15 2 16 0 6 -12 -10 -12 -9 -13 5 -8 9 3 16 9 16 13 0 4 109 7 243 6 133 -1 259 3 281 8 34 9 116 78 116 98 0 4 5 20 10 34 10 27 31 30 38 4z m-985 -154 c-3 -9 -8 -14 -10 -11 -3 3 -2 9 2 15 9 16 15 13 8 -4z m-363 -165 c0 -5 -5 -10 -11 -10 -5 0 -7 5 -4 10 3 6 8 10 11 10 2 0 4 -4 4 -10z"/> <path d="M1487 3749 c7 -7 15 -10 18 -7 3 3 -2 9 -12 12 -14 6 -15 5 -6 -5z"/> <path d="M1300 3746 c0 -2 7 -7 16 -10 8 -3 12 -2 9 4 -6 10 -25 14 -25 6z"/> <path d="M1230 3736 c0 -2 9 -6 20 -9 11 -3 18 -1 14 4 -5 9 -34 13 -34 5z"/> <path d="M1521 3664 c0 -11 3 -14 6 -6 3 7 2 16 -1 19 -3 4 -6 -2 -5 -13z"/> <path d="M1480 3496 c7 -7 13 -7 20 0 6 6 3 10 -10 10 -13 0 -16 -4 -10 -10z"/> <path d="M1552 3490 c0 -14 2 -19 5 -12 2 6 2 18 0 25 -3 6 -5 1 -5 -13z"/> <path d="M1116 3838 c3 -5 10 -6 15 -3 13 9 11 12 -6 12 -8 0 -12 -4 -9 -9z"/> <path d="M945 3741 c-3 -5 -2 -12 3 -15 5 -3 9 1 9 9 0 17 -3 19 -12 6z"/> <path d="M940 3701 c0 -5 7 -12 16 -15 8 -3 12 -11 8 -17 -5 -8 -3 -9 5 -4 8 4 25 -2 42 -14 16 -12 29 -17 29 -12 0 6 -13 17 -28 25 -16 8 -34 22 -41 30 -15 18 -31 21 -31 7z"/> <path d="M1000 3701 c0 -6 4 -13 10 -16 6 -3 7 1 4 9 -7 18 -14 21 -14 7z"/> <path d="M980 3630 c-9 -6 -10 -10 -3 -10 6 0 15 5 18 10 8 12 4 12 -15 0z"/> <path d="M1047 3616 c-4 -9 -1 -13 7 -10 13 5 92 -53 89 -65 -1 -4 4 -8 12 -8 23 0 -1 33 -42 58 -21 13 -39 27 -41 31 -6 13 -19 9 -25 -6z"/> <path d="M1102 3435 c4 -4 1 -13 -8 -19 -13 -10 -13 -14 8 -31 21 -18 22 -18 6 0 -16 17 -16 19 -1 30 13 10 14 13 2 20 -8 5 -11 5 -7 0z"/> <path d="M1284 3386 c1 -8 5 -18 8 -22 4 -3 5 1 4 10 -1 8 -5 18 -8 22 -4 3 -5 -1 -4 -10z"/> <path d="M1300 3260 c-9 -6 -10 -10 -3 -10 6 0 15 5 18 10 8 12 4 12 -15 0z"/> <path d="M1345 3241 c-3 -5 -2 -12 3 -15 5 -3 9 1 9 9 0 17 -3 19 -12 6z"/> <path d="M1397 3193 c-4 -3 -7 -10 -7 -14 0 -11 29 -19 35 -10 6 11 -20 33 -28 24z"/> <path d="M1058 3223 c6 -2 9 -10 6 -15 -4 -7 -2 -8 5 -4 13 9 5 26 -12 25 -9 0 -8 -2 1 -6z"/> <path d="M1123 3155 c0 -8 3 -13 5 -10 3 3 11 0 19 -7 11 -8 17 -8 26 2 9 10 9 11 -1 5 -8 -4 -21 0 -31 9 -15 14 -18 14 -18 1z"/> <path d="M1160 3030 c-8 -5 -10 -10 -5 -10 6 0 17 5 25 10 8 5 11 10 5 10 -5 0 -17 -5 -25 -10z"/> <path d="M1390 2856 c0 -2 7 -9 15 -16 13 -11 14 -10 9 4 -5 14 -24 23 -24 12z"/> <path d="M1361 2847 c2 -1 13 -9 24 -17 19 -14 19 -14 6 3 -7 9 -18 17 -24 17 -6 0 -8 -1 -6 -3z"/> <path d="M1490 2796 c0 -2 8 -10 18 -17 15 -13 16 -12 3 4 -13 16 -21 21 -21 13z"/> <path d="M1506 2747 c3 -10 9 -15 12 -12 3 3 0 11 -7 18 -10 9 -11 8 -5 -6z"/> <path d="M1695 2741 c-3 -5 0 -13 6 -17 7 -4 9 -3 5 4 -3 5 0 13 6 15 9 4 10 6 1 6 -6 1 -14 -3 -18 -8z"/> <path d="M1563 2707 c-3 -6 -1 -7 5 -3 5 3 12 1 14 -6 3 -8 6 -7 10 3 7 17 -19 22 -29 6z"/> <path d="M1766 2712 c-3 -5 1 -9 9 -9 8 0 12 4 9 9 -3 4 -7 8 -9 8 -2 0 -6 -4 -9 -8z"/> <path d="M1797 2539 c7 -7 15 -10 18 -7 3 3 -2 9 -12 12 -14 6 -15 5 -6 -5z"/> <path d="M1716 2522 c-7 -12 -1 -17 38 -32 18 -6 25 -6 21 0 -3 6 -11 10 -17 10 -6 0 -16 7 -23 17 -8 10 -14 12 -19 5z"/> <path d="M1861 2504 c0 -11 3 -14 6 -6 3 7 2 16 -1 19 -3 4 -6 -2 -5 -13z"/> <path d="M1804 2463 c4 -8 2 -13 -6 -13 -7 -1 0 -8 15 -16 37 -20 40 -15 9 16 -13 14 -22 19 -18 13z"/> <path d="M1763 2439 c-2 -23 3 -25 10 -4 4 8 3 16 -1 19 -4 3 -9 -4 -9 -15z"/> <path d="M1880 2390 c-9 -6 -10 -10 -3 -10 6 0 15 5 18 10 8 12 4 12 -15 0z"/> <path d="M1726 2318 c3 -5 10 -6 15 -3 13 9 11 12 -6 12 -8 0 -12 -4 -9 -9z"/> <path d="M1685 2270 c-3 -6 1 -7 9 -4 18 7 21 14 7 14 -6 0 -13 -4 -16 -10z"/> <path d="M831 2946 c-9 -11 -9 -15 1 -20 9 -4 10 -8 2 -11 -6 -3 -19 -11 -28 -18 -14 -11 -14 -12 8 -12 13 0 24 2 24 5 0 3 1 7 2 10 3 6 7 60 4 60 -1 0 -7 -6 -13 -14z"/> <path d="M926 2892 c-3 -5 1 -9 9 -9 8 0 12 4 9 9 -3 4 -7 8 -9 8 -2 0 -6 -4 -9 -8z"/> <path d="M778 2848 c9 -9 8 -16 -6 -32 -17 -21 -17 -21 5 -2 18 15 20 22 12 33 -6 7 -14 13 -17 13 -3 0 -1 -5 6 -12z"/> <path d="M536 2522 l-19 -27 24 22 c12 12 21 24 18 27 -2 2 -13 -8 -23 -22z"/> <path d="M1368 2333 c7 -3 16 -2 19 1 4 3 -2 6 -13 5 -11 0 -14 -3 -6 -6z"/> <path d="M844 2228 c-4 -7 -4 -10 1 -6 4 4 15 2 24 -5 14 -11 14 -10 2 6 -16 20 -18 21 -27 5z"/> <path d="M2560 3831 c0 -6 4 -13 10 -16 6 -3 7 1 4 9 -7 18 -14 21 -14 7z"/> <path d="M2587 3829 c7 -7 15 -10 18 -7 3 3 -2 9 -12 12 -14 6 -15 5 -6 -5z"/> <path d="M2636 3828 c3 -5 10 -6 15 -3 13 9 11 12 -6 12 -8 0 -12 -4 -9 -9z"/> <path d="M886 3812 c-2 -4 4 -8 14 -8 10 0 16 4 14 8 -3 4 -9 8 -14 8 -5 0 -11 -4 -14 -8z"/> <path d="M2716 3763 c-6 -14 -5 -15 5 -6 7 7 10 15 7 18 -3 3 -9 -2 -12 -12z"/> <path d="M2485 3751 c-3 -5 -2 -12 3 -15 5 -3 9 1 9 9 0 17 -3 19 -12 6z"/> <path d="M2685 3729 c-11 -17 1 -21 15 -4 8 9 8 15 2 15 -6 0 -14 -5 -17 -11z"/> <path d="M809 3663 c-13 -16 -12 -17 4 -4 9 7 17 15 17 17 0 8 -8 3 -21 -13z"/> <path d="M2625 3660 c-3 -6 1 -7 9 -4 18 7 21 14 7 14 -6 0 -13 -4 -16 -10z"/> <path d="M2570 3619 c0 -5 5 -7 10 -4 6 3 10 8 10 11 0 2 -4 4 -10 4 -5 0 -10 -5 -10 -11z"/> <path d="M2505 3589 c-63 -31 -124 -46 -282 -69 -151 -22 -261 -53 -334 -95 -46 -25 -173 -144 -165 -153 3 -3 35 24 72 59 36 35 70 63 75 61 5 -1 9 3 9 8 0 6 6 10 13 8 7 -2 14 2 15 7 4 16 166 75 173 63 4 -7 8 -7 10 1 2 5 29 13 59 17 30 3 64 7 75 9 85 10 252 53 282 73 13 8 29 12 37 9 10 -4 13 -1 9 9 -3 7 -6 14 -7 14 0 -1 -19 -10 -41 -21z"/> <path d="M1376 3581 c-13 -14 -14 -21 -5 -27 7 -4 10 -3 6 3 -8 13 17 36 28 25 5 -4 5 -1 1 6 -9 16 -10 15 -30 -7z"/> <path d="M1770 3580 c-9 -6 -10 -10 -3 -10 6 0 15 5 18 10 8 12 4 12 -15 0z"/> <path d="M2705 3569 c-4 -6 -5 -12 -2 -15 2 -3 7 2 10 11 7 17 1 20 -8 4z"/> <path d="M1795 3560 c-3 -6 1 -7 9 -4 18 7 21 14 7 14 -6 0 -13 -4 -16 -10z"/> <path d="M1680 3490 c6 -11 13 -20 16 -20 2 0 0 9 -6 20 -6 11 -13 20 -16 20 -2 0 0 -9 6 -20z"/> <path d="M2610 3480 c-9 -6 -10 -10 -3 -10 6 0 15 5 18 10 8 12 4 12 -15 0z"/> <path d="M2550 3446 c0 -2 7 -7 16 -10 8 -3 12 -2 9 4 -6 10 -25 14 -25 6z"/> <path d="M2080 3420 c8 -5 20 -10 25 -10 6 0 3 5 -5 10 -8 5 -19 10 -25 10 -5 0 -3 -5 5 -10z"/> <path d="M2604 3409 c-3 -6 -2 -15 3 -20 5 -5 9 -1 9 11 0 23 -2 24 -12 9z"/> <path d="M2525 3373 c-59 -33 -123 -49 -290 -72 -178 -25 -245 -48 -310 -105 l-49 -42 36 -27 c65 -50 168 -198 168 -242 0 -38 17 -7 43 78 l29 93 87 27 c107 32 198 91 250 161 42 55 84 133 79 145 -2 4 -21 -3 -43 -16z m-18 -37 c-3 -8 -1 -17 6 -20 7 -2 2 -8 -11 -12 -16 -4 -20 -9 -12 -14 9 -5 1 -20 -25 -46 -34 -35 -36 -36 -19 -9 15 25 15 28 1 17 -9 -8 -19 -24 -23 -35 -11 -38 -34 -58 -55 -47 -20 11 -37 -4 -18 -16 8 -5 9 -3 4 6 -5 9 -4 11 4 6 17 -11 2 -29 -20 -23 -11 3 -17 2 -15 -2 7 -11 -62 -33 -75 -25 -8 5 -9 3 -4 -6 6 -10 4 -12 -8 -7 -10 3 -17 2 -17 -4 0 -6 -5 -7 -11 -4 -5 4 -19 -1 -30 -11 -23 -21 -24 -12 -3 43 9 24 15 45 12 48 -2 2 -31 0 -64 -5 -93 -14 -249 -16 -214 -3 8 3 26 17 39 30 14 13 31 21 38 19 8 -3 12 -2 9 3 -6 9 59 39 84 40 8 0 26 2 40 5 75 16 119 22 153 20 20 -2 37 1 37 6 0 5 23 8 50 5 28 -2 48 0 45 5 -7 11 31 24 45 15 5 -3 20 3 32 14 26 25 32 26 25 7z m-337 -186 c0 -3 -3 -10 -7 -14 -4 -3 -8 -17 -10 -29 -5 -34 -24 -77 -33 -72 -4 2 -5 -7 -2 -20 2 -14 0 -25 -7 -25 -5 0 -8 -6 -5 -13 3 -8 -2 -20 -10 -26 -13 -11 -17 -9 -26 13 -5 14 -14 26 -20 26 -6 0 -8 5 -5 10 3 6 3 10 -2 10 -10 0 -47 62 -45 73 2 5 -2 6 -7 3 -15 -10 -22 10 -12 36 6 13 10 16 11 8 0 -10 3 -11 8 -3 11 17 172 39 172 23z m-200 -24 c0 -8 -4 -18 -10 -21 -5 -3 -10 0 -10 9 0 8 -6 17 -12 19 -7 3 -3 6 10 6 13 1 22 -5 22 -13z"/> <path d="M2395 3190 c-4 -6 -11 -7 -17 -4 -7 4 -8 2 -4 -5 6 -9 11 -9 22 0 14 11 18 19 10 19 -3 0 -8 -5 -11 -10z"/> <path d="M2210 3140 c6 -11 13 -20 16 -20 2 0 0 9 -6 20 -6 11 -13 20 -16 20 -2 0 0 -9 6 -20z"/> <path d="M1585 3370 c-4 -6 -11 -8 -16 -5 -16 10 -10 -2 9 -16 9 -7 14 -9 10 -5 -4 5 -3 15 3 23 6 7 9 13 6 13 -3 0 -9 -5 -12 -10z"/> <path d="M1853 3345 c17 -19 17 -19 35 0 16 18 16 18 0 6 -15 -11 -21 -11 -35 0 -17 12 -17 12 0 -6z"/> <path d="M1922 3266 c-9 -15 -12 -39 -4 -31 4 4 7 12 7 18 0 7 5 12 12 12 6 0 14 3 17 6 3 3 -1 6 -9 6 -9 0 -19 -5 -23 -11z"/> <path d="M1773 3248 c-12 -21 -14 -50 -2 -43 6 4 8 13 5 21 -3 7 3 18 12 23 9 6 12 11 5 11 -6 0 -15 -6 -20 -12z"/> <path d="M1250 3185 c0 -2 6 -8 13 -14 10 -8 14 -7 14 2 0 8 -6 14 -14 14 -7 0 -13 -1 -13 -2z"/> <path d="M1819 3153 c-13 -16 -12 -17 4 -4 16 13 21 21 13 21 -2 0 -10 -8 -17 -17z"/> <path d="M2435 3147 c-14 -11 -15 -16 -5 -22 9 -6 11 -4 5 5 -6 9 -4 12 7 8 9 -4 15 0 15 8 0 17 1 17 -22 1z"/> <path d="M1685 3131 c-3 -5 -2 -12 3 -15 5 -3 9 1 9 9 0 17 -3 19 -12 6z"/> <path d="M1510 3116 c14 -18 13 -19 -2 -13 -25 9 -22 0 3 -14 12 -6 19 -7 15 -1 -7 12 22 25 36 15 7 -4 8 -1 4 6 -5 7 -15 10 -23 7 -9 -4 -23 -1 -32 6 -15 12 -15 11 -1 -6z"/> <path d="M1686 3057 c-43 -65 -39 -69 7 -6 10 13 16 17 13 8 -3 -12 2 -16 20 -16 13 0 24 3 24 8 0 5 -3 8 -7 8 -21 -3 -24 3 -12 19 13 15 12 16 -3 3 -20 -15 -25 1 -5 17 14 12 52 -10 39 -23 -4 -5 -1 -5 6 -1 7 4 9 13 5 19 -4 7 0 7 10 -1 9 -8 15 -19 14 -25 -1 -6 5 -11 13 -12 27 0 53 -22 55 -46 1 -13 8 -23 14 -21 15 3 51 -34 43 -44 -4 -4 -1 -4 6 0 9 6 11 -2 8 -29 -4 -31 -2 -34 10 -24 16 13 19 23 4 14 -5 -3 -10 -1 -10 4 0 18 20 12 26 -6 3 -10 13 -31 21 -47 15 -28 15 -29 -2 -22 -18 7 -18 6 0 -14 13 -14 19 -34 18 -61 -1 -24 2 -37 8 -33 7 4 8 -7 3 -32 -4 -21 -8 -50 -8 -64 -3 -46 -39 -150 -53 -150 -7 0 -13 -5 -13 -11 0 -5 6 -7 13 -4 6 4 5 1 -3 -7 -8 -7 -16 -22 -18 -33 l-3 -20 17 20 c56 70 88 189 81 300 -9 143 -65 243 -194 346 -41 33 -77 59 -80 59 -3 0 -2 -8 1 -17 6 -17 5 -17 -7 -1 -11 14 -18 8 -61 -55z"/> <path d="M1560 3082 c0 -5 6 -15 14 -21 11 -9 15 -8 20 6 4 10 4 14 0 10 -4 -4 -13 -2 -21 4 -8 7 -13 8 -13 1z"/> <path d="M949 3078 c-5 -18 -6 -38 -1 -34 7 8 12 36 6 36 -2 0 -4 -1 -5 -2z"/> <path d="M723 2944 c0 -8 3 -12 5 -9 3 3 11 0 18 -6 9 -7 12 -6 10 7 -3 21 -33 28 -33 8z"/> <path d="M1025 2929 c-4 -6 -5 -12 -2 -15 2 -3 7 2 10 11 7 17 1 20 -8 4z"/> <path d="M2474 2916 c-42 -19 -55 -32 -74 -71 -20 -42 -21 -51 -11 -87 17 -56 53 -85 135 -109 131 -38 141 -42 144 -71 2 -18 -4 -31 -20 -42 -43 -30 -171 -14 -217 28 -16 15 -19 12 -40 -30 -12 -26 -21 -47 -19 -48 2 -1 15 -9 29 -18 37 -23 126 -48 171 -48 140 0 236 90 207 194 -15 54 -55 82 -159 112 -52 15 -101 31 -108 37 -21 16 -10 60 18 75 32 17 111 9 160 -17 l37 -19 21 44 c12 25 22 46 22 49 0 2 -25 13 -55 24 -78 29 -174 28 -241 -3z m156 -6 c-12 -8 -10 -10 10 -9 14 0 34 -2 45 -4 11 -3 26 -6 32 -6 17 -1 10 -44 -8 -49 -11 -3 -11 -1 1 7 13 9 12 11 -5 12 -51 5 -61 6 -75 12 -28 10 -70 14 -70 6 0 -5 -6 -6 -13 -3 -7 2 -21 -4 -31 -15 -10 -11 -22 -19 -25 -16 -4 2 -13 -5 -20 -17 -7 -11 -8 -18 -3 -14 5 3 7 -5 5 -17 -5 -23 30 -69 58 -76 7 -2 42 -10 76 -19 36 -9 60 -19 56 -25 -4 -6 0 -8 10 -4 16 6 16 5 1 -18 -11 -17 -20 -22 -28 -16 -10 8 -153 50 -183 53 -7 1 -10 5 -7 10 3 4 1 8 -3 8 -16 0 -41 55 -39 87 1 34 50 98 66 88 6 -4 10 -1 10 5 0 7 7 9 16 6 8 -3 13 -2 9 3 -3 5 16 9 41 9 25 0 48 3 52 6 3 3 12 6 21 6 14 0 14 -2 1 -10z m118 -296 c6 -21 7 -44 3 -53 -5 -9 -6 -23 -3 -31 5 -13 3 -13 -13 0 -17 14 -18 14 -6 -7 11 -21 8 -27 -10 -25 -4 1 -14 -7 -24 -18 -9 -10 -23 -16 -31 -13 -8 3 -14 0 -14 -7 0 -10 -3 -10 -15 0 -11 9 -15 9 -15 1 0 -16 -110 -11 -139 7 -14 8 -21 9 -16 2 4 -6 -9 -1 -28 12 -33 21 -35 24 -20 38 12 11 17 12 20 3 3 -7 9 -13 14 -13 6 0 7 6 3 12 -5 7 4 3 18 -8 16 -12 39 -20 57 -19 17 1 28 -2 25 -6 -2 -5 8 -6 23 -4 50 6 83 17 83 27 0 6 7 7 16 4 9 -4 13 -2 8 5 -4 6 -2 14 4 18 6 3 13 19 16 35 3 16 2 26 -1 22 -6 -6 -32 23 -33 36 0 4 7 14 16 22 22 22 48 6 62 -40z"/> <path d="M2432 2835 c-8 -10 -9 -15 -2 -15 6 0 8 -6 4 -12 -4 -7 -3 -10 1 -5 8 7 19 48 12 47 -1 -1 -8 -7 -15 -15z"/> <path d="M2692 2637 c-9 -10 -6 -13 13 -13 19 0 22 3 13 13 -6 7 -12 13 -13 13 -1 0 -7 -6 -13 -13z"/> <path d="M2962 2803 c-33 -76 -81 -185 -107 -243 -26 -58 -49 -111 -52 -117 -4 -10 11 -13 55 -13 l60 0 21 53 21 52 116 -5 116 -5 18 -45 17 -45 62 -5 c33 -3 61 -4 61 -4 0 2 -155 359 -195 452 l-28 62 -52 0 -53 0 -60 -137z m161 88 c6 -6 8 -11 4 -11 -4 0 2 -16 13 -35 11 -19 16 -35 11 -35 -5 0 -12 6 -14 13 -4 9 -6 9 -6 -1 -1 -8 8 -16 19 -19 12 -3 20 -14 20 -25 0 -11 8 -32 19 -46 10 -15 17 -38 16 -50 -1 -13 4 -26 12 -29 7 -3 13 -12 13 -19 0 -8 7 -26 16 -39 9 -13 12 -30 8 -36 -5 -8 -3 -9 6 -4 10 6 12 3 8 -13 -4 -12 -2 -19 3 -16 5 3 12 -8 15 -25 4 -17 10 -28 15 -25 5 3 6 -2 3 -11 -5 -12 -9 -13 -20 -4 -11 9 -14 8 -14 -1 0 -17 -35 29 -44 57 -12 38 -31 45 -131 46 -101 1 -130 12 -98 38 11 9 14 10 9 2 -10 -18 128 -10 151 8 10 7 19 14 21 15 2 1 -1 12 -8 23 -8 16 -8 21 1 21 7 0 2 11 -11 25 -13 14 -20 25 -15 25 5 0 4 5 -3 12 -7 7 -12 23 -12 36 0 15 -4 21 -12 16 -7 -5 -9 -2 -6 7 9 23 -16 49 -45 47 -14 -1 -25 -7 -24 -13 1 -5 -3 -9 -10 -8 -7 2 -10 -3 -7 -11 3 -8 0 -25 -7 -38 -7 -13 -12 -27 -11 -32 2 -5 -5 -17 -14 -27 -13 -15 -14 -19 -3 -19 11 0 11 -2 1 -8 -17 -11 -24 -53 -11 -68 7 -8 7 -14 -1 -19 -8 -5 -7 -11 2 -23 11 -13 11 -15 -4 -10 -10 4 -19 1 -22 -8 -3 -9 -10 -13 -15 -9 -6 3 -15 -13 -21 -35 -6 -22 -15 -40 -21 -40 -6 0 -7 -5 -3 -12 5 -8 2 -9 -10 -5 -10 4 -25 7 -34 7 -15 0 -15 2 -2 10 8 5 12 10 7 10 -4 0 -1 13 7 29 9 16 12 31 9 35 -4 3 -1 6 6 6 7 0 9 5 5 12 -5 7 -2 9 9 5 10 -4 14 -2 11 7 -8 21 14 68 28 60 10 -5 10 -4 1 6 -10 10 -8 19 8 41 11 16 18 33 15 38 -4 5 1 16 9 24 8 9 15 22 15 29 0 8 5 19 12 26 7 7 9 12 5 12 -4 0 -1 13 7 29 9 16 12 32 8 36 -4 5 -2 5 4 2 7 -4 14 1 17 12 3 14 13 18 41 16 21 -1 42 -7 49 -14z m-22 -78 c13 -16 12 -17 -3 -4 -25 19 -23 8 17 -93 19 -49 35 -91 35 -92 0 -2 -35 -2 -78 -1 l-78 2 27 65 c15 36 34 82 43 103 17 42 19 43 37 20z"/> <path d="M3066 2858 c3 -5 10 -6 15 -3 13 9 11 12 -6 12 -8 0 -12 -4 -9 -9z"/> <path d="M2991 2774 c0 -11 3 -14 6 -6 3 7 2 16 -1 19 -3 4 -6 -2 -5 -13z"/> <path d="M3160 2600 c0 -5 5 -10 11 -10 5 0 7 5 4 10 -3 6 -8 10 -11 10 -2 0 -4 -4 -4 -10z"/> <path d="M3194 2590 c0 -13 4 -16 10 -10 7 7 7 13 0 20 -6 6 -10 3 -10 -10z"/> <path d="M3226 2587 c3 -10 9 -15 12 -12 3 3 0 11 -7 18 -10 9 -11 8 -5 -6z"/> <path d="M3127 2583 c-3 -5 6 -9 20 -10 19 -1 22 1 12 8 -17 11 -26 11 -32 2z"/> <path d="M3390 2683 l0 -258 56 3 56 4 -4 152 -3 152 71 -126 c97 -170 100 -171 188 -15 36 64 66 121 66 125 0 5 3 11 8 13 4 3 5 -65 4 -151 l-4 -157 56 3 56 4 0 254 0 254 -48 0 -48 0 -88 -155 c-48 -85 -89 -155 -91 -155 -2 0 -42 70 -90 155 l-87 155 -49 0 -49 0 0 -257z m74 215 c-5 -8 -2 -9 10 -5 9 4 15 3 12 -2 -3 -5 0 -14 8 -20 8 -7 17 -23 20 -37 4 -16 11 -22 19 -17 7 4 6 0 -2 -11 -12 -15 -12 -17 0 -14 8 2 13 -3 11 -10 -1 -8 9 -27 23 -44 23 -27 26 -35 24 -54 0 -3 9 -14 20 -23 12 -10 21 -23 21 -28 0 -6 6 -16 14 -22 11 -9 18 -8 30 4 9 9 16 13 16 9 0 -4 6 0 13 11 9 12 19 15 28 10 12 -8 12 -6 0 8 -12 15 -11 20 3 35 9 10 13 22 9 25 -8 9 47 68 58 61 4 -2 11 1 15 7 4 8 3 9 -4 5 -7 -4 -12 -1 -12 8 0 8 5 18 10 21 6 4 8 10 5 15 -3 5 0 15 7 22 7 8 18 23 24 33 12 22 41 32 54 18 10 -9 17 -440 8 -449 -4 -3 -16 -1 -27 6 -21 10 -22 18 -20 140 2 141 -5 165 -44 151 -12 -5 -27 -6 -33 -4 -6 2 -17 -4 -25 -14 -12 -16 -12 -17 1 -7 8 6 22 11 32 11 13 0 12 -6 -9 -39 -25 -38 -43 -49 -43 -26 0 6 -3 8 -6 5 -4 -4 -3 -12 3 -19 5 -7 9 -17 8 -23 -2 -20 -34 -71 -60 -95 l-27 -25 -23 27 c-14 17 -22 37 -21 53 3 20 1 23 -10 14 -14 -12 -19 -3 -15 29 1 6 -4 12 -10 12 -7 0 -9 3 -6 7 4 3 -1 15 -10 26 -17 19 -17 20 0 14 15 -6 16 -4 7 13 -6 11 -13 20 -16 20 -3 0 -2 -5 2 -11 4 -7 1 -10 -7 -7 -8 3 -12 12 -11 19 2 8 0 11 -4 7 -4 -4 -13 -3 -21 3 -16 14 -47 -7 -39 -26 2 -7 0 -17 -6 -23 -8 -8 -8 -15 0 -25 7 -8 9 -16 6 -19 -3 -3 -5 -39 -5 -79 0 -91 -5 -109 -29 -109 -18 0 -19 9 -17 169 1 98 6 167 11 163 5 -3 6 1 1 8 -10 16 -17 89 -9 101 3 5 14 9 25 9 13 0 18 -4 13 -12z"/> <path d="M3720 2619 c0 -5 5 -7 10 -4 6 3 10 8 10 11 0 2 -4 4 -10 4 -5 0 -10 -5 -10 -11z"/> <path d="M4040 2686 l0 -254 55 -4 55 -3 0 258 0 257 -55 0 -55 0 0 -254z m75 214 c6 -10 7 -397 1 -425 -2 -11 -5 -22 -5 -25 -1 -3 -6 2 -11 10 -9 13 -10 13 -10 0 -1 -8 -6 -4 -11 10 -6 14 -9 113 -8 230 2 192 3 206 20 207 10 1 21 -2 24 -7z"/> <path d="M4210 2890 l0 -50 75 0 75 0 0 -204 0 -204 55 -4 55 -3 0 208 0 207 78 0 79 0 2 50 1 50 -210 0 -210 0 0 -50z m382 14 c4 -3 3 -13 -3 -22 -8 -13 -22 -16 -62 -14 -37 2 -58 -1 -72 -13 -11 -9 -13 -13 -5 -9 12 6 13 5 4 -7 -8 -9 -12 -73 -11 -197 0 -177 -4 -212 -23 -182 -7 11 -10 12 -10 2 0 -7 -5 -10 -10 -7 -6 4 -10 73 -9 183 0 97 0 180 0 185 -1 4 -1 10 -2 15 0 4 -7 14 -15 23 -10 11 -28 14 -70 11 -54 -4 -81 8 -68 30 5 8 343 10 356 2z"/> <path d="M4412 2852 c-11 -25 -11 -25 4 -10 9 9 15 21 13 27 -2 6 -10 -2 -17 -17z"/> <path d="M4680 2685 l0 -255 61 0 60 0 -3 104 -3 105 113 3 113 3 -3 -108 -3 -107 56 0 57 0 1 255 1 255 -58 0 -57 0 3 -100 3 -100 -110 0 -111 0 0 100 0 100 -60 0 -60 0 0 -255z m86 140 c1 -111 6 -116 131 -113 50 2 89 0 86 -4 -2 -5 3 -8 11 -8 9 0 16 5 16 11 0 5 5 7 12 3 7 -4 8 -3 4 5 -4 6 -1 14 7 17 11 4 13 18 10 57 -2 29 -1 67 2 85 5 27 10 33 28 30 22 -3 22 -4 20 -223 l-1 -220 -26 -3 c-15 -2 -26 0 -25 5 5 29 -3 180 -10 192 -6 10 -37 13 -127 12 -65 -1 -123 -6 -128 -11 -4 -4 -10 -50 -12 -101 -2 -69 -7 -95 -18 -101 -9 -5 -18 -3 -23 4 -4 7 -8 111 -8 231 l-1 217 26 0 c25 0 25 -1 26 -85z"/> <path d="M5278 2687 c-60 -139 -108 -255 -108 -257 0 -3 27 -3 60 -2 l59 4 19 49 18 50 116 2 116 2 22 -52 21 -51 65 -4 c35 -2 63 -1 61 2 -9 16 -84 179 -153 332 l-79 178 -55 0 -55 0 -107 -253z m214 186 c7 -18 15 -33 20 -33 4 0 5 -7 2 -15 -4 -8 -2 -15 4 -15 9 0 26 -46 20 -53 -2 -1 7 -13 19 -26 12 -13 19 -30 16 -39 -4 -10 -2 -13 5 -8 8 5 10 2 6 -8 -4 -10 -1 -16 7 -16 7 0 10 -3 6 -6 -3 -3 5 -23 18 -43 18 -29 21 -41 13 -56 -9 -15 -8 -17 6 -12 10 4 15 3 11 -3 -3 -6 1 -20 9 -32 23 -33 20 -53 -8 -54 -25 -2 -41 19 -29 38 3 6 1 8 -4 5 -10 -6 -27 27 -24 46 1 5 -3 6 -8 3 -5 -4 -11 0 -13 6 -3 9 -27 13 -76 12 -44 0 -72 4 -72 10 0 6 -4 5 -9 -2 -7 -11 -9 -11 -14 1 -8 21 31 29 57 11 27 -19 45 -18 20 1 -18 15 -18 15 7 9 21 -4 31 0 47 21 18 22 19 31 10 58 -6 18 -19 43 -30 56 -10 13 -18 30 -18 38 0 25 -39 72 -60 70 -10 -1 -17 -4 -14 -8 2 -4 -1 -13 -8 -21 -7 -7 -13 -17 -14 -23 -1 -20 -26 -75 -34 -75 -5 0 -11 -18 -15 -40 -7 -42 7 -75 29 -67 6 3 12 -6 12 -18 2 -19 -2 -23 -22 -19 -28 5 -51 -16 -83 -73 -19 -32 -27 -39 -47 -35 l-23 4 24 49 c14 27 26 56 28 66 2 10 13 37 25 60 12 23 22 49 22 58 0 8 5 15 10 15 6 0 10 6 8 13 -1 6 6 24 16 39 10 15 15 32 11 38 -3 5 -2 10 4 10 6 0 13 12 17 28 12 53 31 72 69 69 30 -2 37 -7 47 -34z m-42 -67 c0 -8 16 -51 35 -96 19 -45 35 -82 35 -83 0 -1 -36 -2 -80 -2 -44 0 -79 2 -77 6 1 3 18 46 37 97 32 85 50 112 50 78z"/> <path d="M5167 2919 c7 -7 15 -10 18 -7 3 3 -2 9 -12 12 -14 6 -15 5 -6 -5z"/> <path d="M1062 2846 c7 -8 15 -12 17 -11 5 6 -10 25 -20 25 -5 0 -4 -6 3 -14z"/> <path d="M1140 2693 c-41 -59 -84 -120 -94 -136 l-19 -29 84 6 c46 3 141 7 211 8 71 2 128 5 127 8 0 3 -53 60 -117 127 l-117 122 -75 -106z m90 62 c5 3 17 -7 27 -21 10 -15 45 -54 79 -88 33 -34 59 -67 56 -74 -3 -10 -7 -10 -20 0 -12 10 -14 10 -8 1 5 -10 -12 -13 -76 -14 -135 -3 -162 -1 -166 10 -2 6 -8 9 -13 5 -19 -11 -30 8 -12 22 10 7 15 14 11 14 -5 0 1 9 12 20 12 12 25 18 30 15 5 -3 7 1 4 9 -6 16 22 76 35 76 5 0 12 10 16 23 4 13 8 17 12 9 2 -6 9 -10 13 -7z"/> <path d="M1176 2689 c2 -4 -2 -10 -8 -12 -8 -4 -9 -6 -2 -6 6 -1 17 5 23 12 8 10 7 14 -4 14 -8 0 -12 -4 -9 -8z"/> <path d="M1286 2652 c-3 -5 1 -9 9 -9 8 0 12 4 9 9 -3 4 -7 8 -9 8 -2 0 -6 -4 -9 -8z"/> <path d="M2896 2787 c3 -10 9 -15 12 -12 3 3 0 11 -7 18 -10 9 -11 8 -5 -6z"/> <path d="M1145 2750 c-4 -6 -11 -7 -17 -4 -7 4 -8 2 -4 -5 6 -9 11 -9 22 0 14 11 18 19 10 19 -3 0 -8 -5 -11 -10z"/> <path d="M573 2703 c0 -9 4 -10 14 -2 7 6 13 12 13 14 0 1 -6 2 -13 2 -8 0 -14 -6 -14 -14z"/> <path d="M1452 2691 c-11 -7 -11 -9 0 -14 9 -3 15 1 15 9 0 8 -1 14 -1 14 -1 0 -7 -4 -14 -9z"/> <path d="M2426 2628 c3 -5 10 -6 15 -3 13 9 11 12 -6 12 -8 0 -12 -4 -9 -9z"/> <path d="M864 2609 c-3 -6 -2 -15 3 -20 5 -5 9 -1 9 11 0 23 -2 24 -12 9z"/> <path d="M2449 2603 c-13 -16 -12 -17 4 -4 9 7 17 15 17 17 0 8 -8 3 -21 -13z"/> <path d="M895 2589 c-4 -6 -5 -12 -2 -15 2 -3 7 2 10 11 7 17 1 20 -8 4z"/> <path d="M826 2578 c3 -5 10 -6 15 -3 13 9 11 12 -6 12 -8 0 -12 -4 -9 -9z"/> <path d="M1960 2560 c0 -5 5 -10 11 -10 5 0 7 5 4 10 -3 6 -8 10 -11 10 -2 0 -4 -4 -4 -10z"/> <path d="M2329 2543 c-13 -16 -12 -17 4 -4 9 7 17 15 17 17 0 8 -8 3 -21 -13z"/> <path d="M971 2516 c-9 -10 -9 -16 -1 -21 6 -4 14 -4 17 -1 4 3 1 6 -7 6 -10 0 -10 3 0 15 7 8 10 15 7 15 -2 0 -10 -6 -16 -14z"/> <path d="M3530 2506 c0 -2 8 -10 18 -17 15 -13 16 -12 3 4 -13 16 -21 21 -21 13z"/> <path d="M2944 2429 c-3 -6 -2 -15 3 -20 5 -5 9 -1 9 11 0 23 -2 24 -12 9z"/> <path d="M3993 2425 c0 -8 4 -12 9 -9 5 3 6 10 3 15 -9 13 -12 11 -12 -6z"/> <path d="M2386 2413 c-6 -14 -5 -15 5 -6 7 7 10 15 7 18 -3 3 -9 -2 -12 -12z"/> <path d="M260 2291 c0 -6 4 -13 10 -16 6 -3 7 1 4 9 -7 18 -14 21 -14 7z"/> </g> </svg> 